<?xml version="1.0" encoding="UTF-8" standalone="no"?>
<svg
   xmlns:dc="http://purl.org/dc/elements/1.1/"
   xmlns:cc="http://creativecommons.org/ns#"
   xmlns:rdf="http://www.w3.org/1999/02/22-rdf-syntax-ns#"
   xmlns:svg="http://www.w3.org/2000/svg"
   xmlns="http://www.w3.org/2000/svg"
   xmlns:sodipodi="http://sodipodi.sourceforge.net/DTD/sodipodi-0.dtd"
   xmlns:inkscape="http://www.inkscape.org/namespaces/inkscape"
   inkscape:version="1.0 (4035a4fb49, 2020-05-01)"
   height="84.800003"
   width="113.31529"
   sodipodi:docname="LogoEN3S.svg"
   xml:space="preserve"
   viewBox="0 0 113.3153 84.800003"
   y="0px"
   x="0px"
   id="Calque_1"
   version="1.1"><metadata
   id="metadata105"><rdf:RDF><cc:Work
       rdf:about=""><dc:format>image/svg+xml</dc:format><dc:type
         rdf:resource="http://purl.org/dc/dcmitype/StillImage" /></cc:Work></rdf:RDF></metadata><defs
   id="defs103">
	
	
	
	
	
	
	
	
	
	
	
	
	
	
	
	
	
	
	
	
	
	
	
	
	
	
	
	
	
	
	
	
	
	
	
	
	
	
	
	
	
	
	
	
	
	
	
</defs><sodipodi:namedview
   inkscape:current-layer="Calque_1"
   inkscape:window-maximized="1"
   inkscape:window-y="-9"
   inkscape:window-x="-9"
   inkscape:cy="65.031323"
   inkscape:cx="56.657328"
   inkscape:zoom="4.3349754"
   showgrid="false"
   id="namedview101"
   inkscape:window-height="1051"
   inkscape:window-width="1920"
   inkscape:pageshadow="2"
   inkscape:pageopacity="0"
   guidetolerance="10"
   gridtolerance="10"
   objecttolerance="10"
   borderopacity="1"
   bordercolor="#666666"
   pagecolor="#ffffff" />
<style
   id="style2"
   type="text/css">
	.st0{fill:#FFFFFF;}
</style>
<path
   class="st0"
   d="m 0.01529111,78.2 c 0,0 0.1,-0.1 0,0 l 0.8,-0.1 c 0.1,0 0.1,0 0.1,0.1 v 5.6 c 0,0 0,0.1 0.1,0.1 h 3.1 c 0.1,0 0.1,0 0.1,0.1 v 0.6 c 0,0.1 0,0.1 -0.1,0.1 H 0.11529111 c -0.1,0 -0.1,0 -0.1,-0.1 z"
   id="path4"
   style="fill:#615f60;fill-opacity:1" /><path
   class="st0"
   d="m 8.9152911,82.4 -1,-3 v 0 l -1,3 z m -1.5,-4.2 c 0,-0.1 0,-0.1 0.1,-0.1 h 0.6 c 0.1,0 0.1,0 0.1,0.1 l 2.1999999,6.4 c 0,0.1 0,0.1 -0.1,0.1 H 9.6152911 c -0.1,0 -0.1,0 -0.1,-0.1 l -0.5,-1.4 h -2.5 l -0.5,1.4 c 0,0.1 -0.1,0.1 -0.1,0.1 h -0.7 c -0.1,0 -0.1,0 -0.1,-0.1 z"
   id="path6"
   style="fill:#615f60;fill-opacity:1" /><path
   class="st0"
   d="m 18.515291,80.1 c 0,-0.7 -0.5,-1.2 -1.3,-1.2 h -1.5 c 0,0 -0.1,0 -0.1,0.1 v 2.2 c 0,0 0,0.1 0.1,0.1 h 1.5 c 0.8,-0.1 1.3,-0.5 1.3,-1.2 m -3.6,4.6 c 0,0 -0.1,-0.1 0,0 l -0.1,-6.5 c 0,-0.1 0,-0.1 0.1,-0.1 h 2.3 c 1.3,0 2.1,0.8 2.1,2 0,1.2 -0.8,2 -2.1,2 h -1.5 c 0,0 -0.1,0 -0.1,0.1 v 2.5 c 0,0.1 0,0.1 -0.1,0.1 h -0.6 z"
   id="path8"
   style="fill:#615f60;fill-opacity:1" /><path
   class="st0"
   d="m 24.715291,80 c 0,-0.7 -0.5,-1.1 -1.2,-1.1 h -1.5 c 0,0 -0.1,0 -0.1,0.1 v 2.1 c 0,0 0,0.1 0.1,0.1 h 1.5 c 0.7,-0.1 1.2,-0.5 1.2,-1.2 m 0.1,4.7 c -0.1,0 -0.1,0 -0.1,-0.1 l -1.3,-2.7 h -1.4 c 0,0 -0.1,0 -0.1,0.1 v 2.6 c 0,0.1 0,0.1 -0.1,0.1 h -0.7 c -0.1,0 -0.1,0 -0.1,-0.1 v -6.4 c 0,-0.1 0,-0.1 0.1,-0.1 h 2.4 c 1.2,0 2.1,0.8 2.1,1.9 0,0.9 -0.5,1.5 -1.3,1.8 l 1.4,2.8 c 0,0.1 0,0.1 -0.1,0.1 z"
   id="path10"
   style="fill:#615f60;fill-opacity:1" /><path
   class="st0"
   d="m 31.015291,83 c 0.1,-0.2 0.1,-0.7 0.1,-1.6 0,-0.9 -0.1,-1.4 -0.1,-1.6 -0.2,-0.6 -0.7,-1 -1.4,-1 -0.7,0 -1.2,0.3 -1.4,1 -0.1,0.2 -0.1,0.7 -0.1,1.6 0,0.9 0.1,1.4 0.1,1.6 0.2,0.6 0.7,1 1.4,1 0.7,0 1.2,-0.4 1.4,-1 m -3.6,0.2 c -0.1,-0.4 -0.2,-0.8 -0.2,-1.8 0,-1 0,-1.5 0.2,-1.8 0.3,-1 1.1,-1.5 2.2,-1.5 1.1,0 1.9,0.5 2.2,1.5 0.1,0.4 0.2,0.8 0.2,1.8 0,1 0,1.5 -0.2,1.8 -0.3,1 -1.1,1.5 -2.2,1.5 -1.1,0.1 -1.9,-0.4 -2.2,-1.5"
   id="path12"
   style="fill:#615f60;fill-opacity:1" /><path
   class="st0"
   d="m 35.115291,84.7 c 0,0 -0.1,-0.1 0,0 l -0.1,-5.7 c 0,0 0,-0.1 -0.1,-0.1 h -1.8 c -0.1,0 -0.1,0 -0.1,-0.1 v -0.6 c 0,-0.1 0,-0.1 0.1,-0.1 h 4.6 c 0.1,0 0.1,0 0.1,0.1 v 0.6 c 0,0.1 0,0.1 -0.1,0.1 h -1.8 c 0,0 -0.1,0 -0.1,0.1 v 5.6 c 0,0.1 0,0.1 -0.1,0.1 z"
   id="path14"
   style="fill:#615f60;fill-opacity:1" /><path
   class="st0"
   d="m 39.315291,78.2 c 0,0 0.1,-0.1 0,0 l 4,-0.1 c 0.1,0 0.1,0 0.1,0.1 v 0.6 c 0,0.1 0,0.1 -0.1,0.1 h -3.1 c 0,0 -0.1,0 -0.1,0.1 v 1.9 c 0,0 0,0.1 0.1,0.1 h 2.6 c 0.1,0 0.1,0 0.1,0.1 v 0.6 c 0,0.1 0,0.1 -0.1,0.1 h -2.6 c 0,0 -0.1,0 -0.1,0.1 v 2 c 0,0 0,0.1 0.1,0.1 h 3.1 c 0.1,0 0.1,0 0.1,0.1 v 0.6 c 0,0.1 0,0.1 -0.1,0.1 h -3.9 c -0.1,0 -0.1,0 -0.1,-0.1 z"
   id="path16"
   style="fill:#615f60;fill-opacity:1" /><path
   class="st0"
   d="m 45.015291,81.4 c 0,-1.1 0,-1.5 0.2,-1.8 0.3,-1 1.1,-1.5 2.2,-1.5 1,0 1.7,0.5 2.1,1.3 0,0 0,0.1 0,0.1 l -0.7,0.2 c -0.1,0 -0.1,0 -0.1,0 -0.3,-0.5 -0.7,-0.9 -1.3,-0.9 -0.7,0 -1.1,0.3 -1.4,1 -0.1,0.3 -0.1,0.6 -0.1,1.6 0,1 0,1.3 0.1,1.6 0.2,0.6 0.6,1 1.4,1 0.7,0 1.1,-0.4 1.3,-0.9 0,0 0.1,-0.1 0.1,0 l 0.6,0.3 c 0,0 0.1,0.1 0,0.1 -0.4,0.8 -1.1,1.3 -2.1,1.3 -1.1,0 -1.8,-0.5 -2.2,-1.5 0,-0.4 -0.1,-0.8 -0.1,-1.9"
   id="path18"
   style="fill:#615f60;fill-opacity:1" /><path
   class="st0"
   d="m 52.515291,84.7 c -0.1,0 -0.1,-0.1 0,0 l -0.1,-5.7 c 0,0 0,-0.1 -0.1,-0.1 h -1.8 c -0.1,0 -0.1,0 -0.1,-0.1 v -0.6 c 0,-0.1 0,-0.1 0.1,-0.1 h 4.6 c 0.1,0 0.1,0 0.1,0.1 v 0.6 c 0,0.1 0,0.1 -0.1,0.1 h -1.8 c 0,0 -0.1,0 -0.1,0.1 v 5.6 c 0,0.1 0,0.1 -0.1,0.1 z"
   id="path20"
   style="fill:#615f60;fill-opacity:1" /><path
   class="st0"
   d="m 56.715291,78.2 c 0,0 0,-0.1 0,0 l 0.8,-0.1 c 0.1,0 0.1,0 0.1,0.1 v 6.4 c 0,0.1 0,0.1 -0.1,0.1 h -0.7 c -0.1,0 -0.1,0 -0.1,-0.1 z"
   id="path22"
   style="fill:#615f60;fill-opacity:1" /><path
   class="st0"
   d="m 63.215291,83 c 0.1,-0.2 0.1,-0.7 0.1,-1.6 0,-0.9 -0.1,-1.4 -0.1,-1.6 -0.2,-0.6 -0.7,-1 -1.4,-1 -0.7,0 -1.2,0.3 -1.4,1 -0.1,0.2 -0.1,0.7 -0.1,1.6 0,0.9 0.1,1.4 0.1,1.6 0.2,0.6 0.7,1 1.4,1 0.7,0 1.2,-0.4 1.4,-1 m -3.6,0.2 c -0.1,-0.4 -0.2,-0.8 -0.2,-1.8 0,-1 0,-1.5 0.2,-1.8 0.3,-1 1.1,-1.5 2.2,-1.5 1.1,0 1.9,0.5 2.2,1.5 0.1,0.4 0.2,0.8 0.2,1.8 0,1 0,1.5 -0.2,1.8 -0.3,1 -1.1,1.5 -2.2,1.5 -1.1,0.1 -1.9,-0.4 -2.2,-1.5"
   id="path24"
   style="fill:#615f60;fill-opacity:1" /><path
   class="st0"
   d="m 66.115291,78.2 c 0,0 0,-0.1 0,0 l 0.7,-0.1 c 0.1,0 0.1,0 0.2,0.1 l 3,4.9 v 0 -4.9 c 0,-0.1 0,-0.1 0.1,-0.1 h 0.6 c 0.1,0 0.1,0 0.1,0.1 v 6.4 c 0,0.1 0,0.1 -0.1,0.1 h -0.6 c -0.1,0 -0.1,0 -0.2,-0.1 l -3,-4.9 v 0 4.9 c 0,0.1 0,0.1 -0.1,0.1 h -0.6 c -0.1,0 -0.1,0 -0.1,-0.1 z"
   id="path26"
   style="fill:#615f60;fill-opacity:1" /><path
   class="st0"
   d="m 75.415291,84 c 0,0 0,-0.1 0,-0.1 l 0.4,-0.5 c 0,0 0.1,0 0.1,0 0.4,0.3 1.1,0.7 1.8,0.7 0.9,0 1.4,-0.5 1.4,-1.1 0,-0.6 -0.3,-0.9 -1.4,-1.1 h -0.3 c -1.3,-0.2 -1.9,-0.8 -1.9,-1.8 0,-1.2 0.8,-1.9 2.1,-1.9 0.8,0 1.5,0.3 2,0.6 0,0 0.1,0.1 0,0.1 l -0.3,0.5 c 0,0.1 -0.1,0.1 -0.1,0 -0.5,-0.3 -1,-0.5 -1.6,-0.5 -0.8,0 -1.2,0.4 -1.2,1.1 0,0.5 0.4,0.9 1.4,1 h 0.3 c 1.3,0.2 1.9,0.8 1.9,1.8 0,1.1 -0.8,2 -2.4,2 -0.9,0 -1.7,-0.4 -2.2,-0.8"
   id="path28"
   style="fill:#615f60;fill-opacity:1" /><path
   class="st0"
   d="m 85.415291,83 c 0.1,-0.2 0.1,-0.7 0.1,-1.6 0,-0.9 -0.1,-1.4 -0.1,-1.6 -0.2,-0.6 -0.7,-1 -1.4,-1 -0.7,0 -1.2,0.3 -1.4,1 -0.1,0.2 -0.1,0.7 -0.1,1.6 0,0.9 0.1,1.4 0.1,1.6 0.2,0.6 0.7,1 1.4,1 0.8,0 1.2,-0.4 1.4,-1 m -3.6,0.2 c -0.1,-0.4 -0.2,-0.8 -0.2,-1.8 0,-1 0,-1.5 0.2,-1.8 0.3,-1 1.1,-1.5 2.2,-1.5 1.1,0 1.9,0.5 2.2,1.5 0.1,0.4 0.2,0.8 0.2,1.8 0,1 0,1.5 -0.2,1.8 -0.3,1 -1.1,1.5 -2.2,1.5 -1.1,0.1 -1.9,-0.4 -2.2,-1.5"
   id="path30"
   style="fill:#615f60;fill-opacity:1" /><path
   class="st0"
   d="m 88.115291,81.4 c 0,-1.1 0,-1.5 0.2,-1.8 0.3,-1 1.1,-1.5 2.2,-1.5 1,0 1.7,0.5 2.1,1.3 0,0 0,0.1 0,0.1 l -0.7,0.2 c -0.1,0 -0.1,0 -0.1,0 -0.3,-0.5 -0.7,-0.9 -1.3,-0.9 -0.7,0 -1.1,0.3 -1.4,1 -0.1,0.3 -0.1,0.6 -0.1,1.6 0,1 0,1.3 0.1,1.6 0.2,0.6 0.6,1 1.4,1 0.7,0 1.1,-0.4 1.3,-0.9 0,0 0.1,-0.1 0.1,0 l 0.6,0.3 c 0,0 0.1,0.1 0,0.1 -0.4,0.8 -1.1,1.3 -2.1,1.3 -1.1,0 -1.8,-0.5 -2.2,-1.5 -0.1,-0.4 -0.1,-0.8 -0.1,-1.9"
   id="path32"
   style="fill:#615f60;fill-opacity:1" /><path
   class="st0"
   d="m 94.315291,78.2 c 0,0 0,-0.1 0,0 l 0.8,-0.1 c 0.1,0 0.1,0 0.1,0.1 v 6.4 c 0,0.1 0,0.1 -0.1,0.1 h -0.7 c -0.1,0 -0.1,0 -0.1,-0.1 z"
   id="path34"
   style="fill:#615f60;fill-opacity:1" /><path
   class="st0"
   d="m 100.41529,82.4 -0.999999,-3 v 0 l -1,3 z m -1.499999,-4.2 c 0,-0.1 0,-0.1 0.1,-0.1 h 0.6 c 0.1,0 0.1,0 0.1,0.1 l 2.199999,6.4 c 0,0.1 0,0.1 -0.1,0.1 h -0.7 c -0.1,0 -0.1,0 -0.1,-0.1 l -0.5,-1.4 h -2.599999 l -0.5,1.4 c 0,0.1 -0.1,0.1 -0.1,0.1 h -0.6 c -0.1,0 -0.1,0 -0.1,-0.1 z"
   id="path36"
   style="fill:#615f60;fill-opacity:1" /><path
   class="st0"
   d="m 103.61529,78.2 c 0,0 0,-0.1 0,0 l 0.8,-0.1 c 0.1,0 0.1,0 0.1,0.1 v 5.6 c 0,0 0,0.1 0.1,0.1 h 3.1 c 0.1,0 0.1,0 0.1,0.1 v 0.6 c 0,0.1 0,0.1 -0.1,0.1 h -4 c -0.1,0 -0.1,0 -0.1,-0.1 z"
   id="path38"
   style="fill:#615f60;fill-opacity:1" /><path
   class="st0"
   d="m 109.21529,78.2 c 0,0 0.1,-0.1 0,0 l 4,-0.1 c 0.1,0 0.1,0 0.1,0.1 v 0.6 c 0,0.1 0,0.1 -0.1,0.1 h -3.1 c 0,0 -0.1,0 -0.1,0.1 v 1.9 c 0,0 0,0.1 0.1,0.1 h 2.6 c 0.1,0 0.1,0 0.1,0.1 v 0.6 c 0,0.1 0,0.1 -0.1,0.1 h -2.6 c 0,0 -0.1,0 -0.1,0.1 v 2 c 0,0 0,0.1 0.1,0.1 h 3.1 c 0.1,0 0.1,0 0.1,0.1 v 0.6 c 0,0.1 0,0.1 -0.1,0.1 h -3.9 c -0.1,0 -0.1,0 -0.1,-0.1 z"
   id="path40"
   style="fill:#615f60;fill-opacity:1" /><path
   class="st0"
   d="m 1.6152911,64.5 c -0.1,0 -0.1,0 0,0 l 0.8,-1.1 c 0,-0.1 0.1,-0.1 0.2,-0.1 h 0.7 c 0.1,0 0.1,0 0,0.1 l -1,1 c -0.1,0.1 -0.1,0.1 -0.2,0.1 z m -1.59999999,0.9 c 0,-0.1 0.1,-0.1 0,0 L 4.0152911,65.3 c 0.1,0 0.1,0 0.1,0.1 V 66 c 0,0.1 0,0.1 -0.1,0.1 h -3 c 0,0 -0.1,0 -0.1,0.1 v 1.9 c 0,0 0,0.1 0.1,0.1 h 2.6 c 0.1,0 0.1,0 0.1,0.1 v 0.6 c 0,0.1 0,0.1 -0.1,0.1 h -2.6 c 0,0 -0.1,0 -0.1,0.1 v 2 c 0,0 0,0.1 0.1,0.1 h 3.1 c 0.1,0 0.1,0 0.1,0.1 v 0.4 c 0,0.1 0,0.1 -0.1,0.1 H 0.11529111 c -0.1,0 -0.1,0 -0.1,-0.1 z"
   id="path42"
   style="fill:#615f60;fill-opacity:1" /><path
   class="st0"
   d="m 5.2152911,68.6 c 0,-1.1 0,-1.5 0.2,-1.8 0.3,-1 1.1,-1.5 2.2,-1.5 1,0 1.7,0.5 2.1,1.3 0,0 0,0.1 0,0.1 l -0.6,0.3 c -0.1,0 -0.1,0 -0.1,0 -0.3,-0.5 -0.7,-0.9 -1.3,-0.9 -0.7,0 -1.1,0.3 -1.4,1 -0.1,0.3 -0.1,0.6 -0.1,1.6 0,1 0,1.3 0.1,1.6 0.2,0.6 0.6,1 1.4,1 0.7,0 1.1,-0.4 1.3,-0.9 0,0 0.1,-0.1 0.1,0 l 0.6,0.3 c 0,0 0.1,0.1 0,0.1 -0.4,0.8 -1.1,1.3 -2.1,1.3 -1.1,0 -1.8,-0.5 -2.2,-1.5 -0.1,-0.6 -0.2,-0.9 -0.2,-2"
   id="path44"
   style="fill:#615f60;fill-opacity:1" /><path
   class="st0"
   d="m 14.515291,70.2 c 0.1,-0.2 0.1,-0.7 0.1,-1.6 0,-0.9 -0.1,-1.4 -0.1,-1.6 -0.2,-0.6 -0.7,-1 -1.4,-1 -0.7,0 -1.2,0.3 -1.4,1 -0.1,0.2 -0.1,0.7 -0.1,1.6 0,0.9 0.1,1.4 0.1,1.6 0.2,0.6 0.7,1 1.4,1 0.7,-0.1 1.2,-0.4 1.4,-1 m -3.6,0.2 c -0.1,-0.4 -0.2,-0.8 -0.2,-1.8 0,-1.1 0,-1.5 0.2,-1.8 0.3,-1 1.1,-1.5 2.2,-1.5 1.1,0 1.9,0.5 2.2,1.5 0.1,0.4 0.2,0.8 0.2,1.8 0,1.1 0,1.5 -0.2,1.8 -0.3,1 -1.1,1.5 -2.2,1.5 -1.1,0 -1.9,-0.5 -2.2,-1.5"
   id="path46"
   style="fill:#615f60;fill-opacity:1" /><path
   class="st0"
   d="m 16.915291,65.4 c 0,-0.1 0.1,-0.1 0,0 l 0.8,-0.1 c 0.1,0 0.1,0 0.1,0.1 V 71 c 0,0 0,0.1 0.1,0.1 h 3.1 c 0.1,0 0.1,0 0.1,0.1 v 0.5 c 0,0.1 0,0.1 -0.1,0.1 h -3.9 c -0.1,0 -0.1,0 -0.1,-0.1 v -6.3 z"
   id="path48"
   style="fill:#615f60;fill-opacity:1" /><path
   class="st0"
   d="m 22.115291,65.4 c 0,-0.1 0.1,-0.1 0,0 l 4,-0.1 c 0.1,0 0.1,0 0.1,0.1 V 66 c 0,0.1 0,0.1 -0.1,0.1 h -3.1 c 0,0 -0.1,0 -0.1,0.1 v 1.9 c 0,0 0,0.1 0.1,0.1 h 2.7 c 0.1,0 0.1,0 0.1,0.1 v 0.6 c 0,0.1 0,0.1 -0.1,0.1 h -2.6 c 0,0 -0.1,0 -0.1,0.1 v 2 c 0,0 0,0.1 0.1,0.1 h 3.1 c 0.1,0 0.1,0 0.1,0.1 v 0.4 c 0,0.1 0,0.1 -0.1,0.1 h -3.9 c -0.1,0 -0.1,0 -0.1,-0.1 v -6.3 z"
   id="path50"
   style="fill:#615f60;fill-opacity:1" /><path
   class="st0"
   d="m 30.815291,71 h 1.2 c 0.8,0 1.3,-0.3 1.5,-0.9 0.1,-0.2 0.1,-0.6 0.1,-1.6 0,-1 0,-1.3 -0.1,-1.6 -0.2,-0.6 -0.7,-0.9 -1.5,-0.9 h -1.2 c 0,0 -0.1,0 -0.1,0.1 l 0.1,4.9 c 0,0 0,0 0,0 m -0.9,-5.6 c 0,-0.1 0,-0.1 0,0 l 2.3,-0.1 c 1.1,0 1.8,0.5 2.1,1.4 0.1,0.4 0.2,0.7 0.2,1.9 0,1.2 -0.1,1.5 -0.2,1.9 -0.3,0.9 -1,1.4 -2.1,1.4 h -2.2 c -0.1,0 -0.1,0 -0.1,-0.1 z"
   id="path52"
   style="fill:#615f60;fill-opacity:1" /><path
   class="st0"
   d="m 35.915291,65.4 c 0,-0.1 0.1,-0.1 0,0 l 4,-0.1 c 0.1,0 0.1,0 0.1,0.1 V 66 c 0,0.1 0,0.1 -0.1,0.1 h -3.1 c 0,0 -0.1,0 -0.1,0.1 v 1.9 c 0,0 0,0.1 0.1,0.1 h 2.6 c 0.1,0 0.1,0 0.1,0.1 v 0.6 c 0,0.1 0,0.1 -0.1,0.1 h -2.6 c 0,0 -0.1,0 -0.1,0.1 v 2 c 0,0 0,0.1 0.1,0.1 h 3.1 c 0.1,0 0.1,0 0.1,0.1 v 0.4 c 0,0.1 0,0.1 -0.1,0.1 h -3.9 c -0.1,0 -0.1,0 -0.1,-0.1 z"
   id="path54"
   style="fill:#615f60;fill-opacity:1" /><path
   class="st0"
   d="m 41.015291,71.1 c 0,0 0,-0.1 0,-0.1 l 0.4,-0.5 c 0,0 0.1,0 0.1,0 0.4,0.3 1.1,0.7 1.8,0.7 0.9,0 1.4,-0.5 1.4,-1.1 0,-0.6 -0.3,-0.9 -1.4,-1.1 h -0.3 c -1.3,-0.2 -1.9,-0.8 -1.9,-1.8 0,-1.2 0.8,-1.9 2.1,-1.9 0.8,0 1.5,0.2 2,0.6 0,0 0.1,0.1 0,0.1 l -0.3,0.5 c 0,0 -0.1,0 -0.1,0 -0.5,-0.3 -1,-0.5 -1.6,-0.5 -0.8,0 -1.2,0.4 -1.2,1.1 0,0.5 0.4,0.9 1.4,1 h 0.3 c 1.3,0.2 1.9,0.8 1.9,1.8 0,1.1 -0.8,2 -2.4,2 -0.8,0 -1.7,-0.3 -2.2,-0.8"
   id="path56"
   style="fill:#615f60;fill-opacity:1" /><path
   class="st0"
   d="m 50.315291,71 h 1.2 c 0.8,0 1.3,-0.3 1.5,-0.9 0.1,-0.2 0.1,-0.6 0.1,-1.6 0,-1 0,-1.3 -0.1,-1.6 -0.2,-0.6 -0.7,-0.9 -1.5,-0.9 h -1.2 c 0,0 -0.1,0 -0.1,0.1 l 0.1,4.9 c 0,0 0,0 0,0 m -0.9,-5.6 c 0,-0.1 0,-0.1 0,0 l 2.3,-0.1 c 1.1,0 1.8,0.5 2.1,1.4 0.1,0.4 0.2,0.7 0.2,1.9 0,1.2 -0.1,1.5 -0.2,1.9 -0.3,0.9 -1,1.4 -2.1,1.4 h -2.2 c -0.1,0 -0.1,0 -0.1,-0.1 z"
   id="path58"
   style="fill:#615f60;fill-opacity:1" /><path
   class="st0"
   d="m 55.415291,65.4 c 0,-0.1 0.1,-0.1 0,0 l 0.8,-0.1 c 0.1,0 0.1,0 0.1,0.1 v 6.3 c 0,0.1 0,0.1 -0.1,0.1 h -0.7 c -0.1,0 -0.1,0 -0.1,-0.1 z"
   id="path60"
   style="fill:#615f60;fill-opacity:1" /><path
   class="st0"
   d="m 61.615291,67.2 c 0,-0.7 -0.5,-1.1 -1.2,-1.1 h -1.5 c 0,0 -0.1,0 -0.1,0.1 v 2.1 c 0,0 0,0.1 0.1,0.1 h 1.5 c 0.7,-0.1 1.2,-0.5 1.2,-1.2 m 0.1,4.6 c -0.1,0 -0.1,0 -0.1,-0.1 l -1.3,-2.7 h -1.4 c 0,0 -0.1,0 -0.1,0.1 v 2.6 c 0,0.1 0,0.1 -0.1,0.1 h -0.7 c -0.1,0 -0.1,0 -0.1,-0.1 v -6.4 c 0,-0.1 0,-0.1 0.1,-0.1 h 2.4 c 1.2,0 2,0.8 2,1.9 0,0.9 -0.5,1.5 -1.3,1.8 l 1.4,2.8 c 0,0.1 0,0.1 -0.1,0.1 z"
   id="path62"
   style="fill:#615f60;fill-opacity:1" /><path
   class="st0"
   d="m 63.915291,65.4 c 0,-0.1 0,-0.1 0,0 l 0.8,-0.1 c 0.1,0 0.1,0 0.1,0.1 v 6.3 c 0,0.1 0,0.1 -0.1,0.1 h -0.7 c -0.1,0 -0.1,0 -0.1,-0.1 z"
   id="path64"
   style="fill:#615f60;fill-opacity:1" /><path
   class="st0"
   d="m 66.115291,68.6 c 0,-1.1 0.1,-1.5 0.2,-1.8 0.3,-1 1.1,-1.5 2.2,-1.5 1.1,0 1.8,0.6 2.2,1.3 0,0.1 0,0.1 0,0.1 l -0.6,0.3 c -0.1,0 -0.1,0 -0.1,0 -0.3,-0.6 -0.7,-0.9 -1.4,-0.9 -0.7,0 -1.2,0.3 -1.4,1 -0.1,0.2 -0.1,0.6 -0.1,1.6 0,1 0,1.4 0.1,1.6 0.2,0.6 0.7,1 1.4,1 0.7,0 1.2,-0.3 1.4,-0.9 0.1,-0.2 0.1,-0.5 0.1,-1 0,0 0,-0.1 -0.1,-0.1 h -1.3 c -0.1,0 -0.1,0 -0.1,-0.1 v -0.6 c 0,-0.1 0,-0.1 0.1,-0.1 h 2.1 c 0.1,0 0.1,0 0.1,0.1 v 0.5 c 0,0.6 -0.1,1.1 -0.2,1.4 -0.3,1 -1.1,1.6 -2.2,1.6 -1.1,0 -1.9,-0.5 -2.2,-1.5 -0.1,-0.6 -0.2,-1 -0.2,-2"
   id="path66"
   style="fill:#615f60;fill-opacity:1" /><path
   class="st0"
   d="m 72.315291,65.4 c 0,-0.1 0.1,-0.1 0,0 l 4,-0.1 c 0.1,0 0.1,0 0.1,0.1 V 66 c 0,0.1 0,0.1 -0.1,0.1 h -3.1 c 0,0 -0.1,0 -0.1,0.1 v 1.9 c 0,0 0,0.1 0.1,0.1 h 2.6 c 0.1,0 0.1,0 0.1,0.1 v 0.6 c 0,0.1 0,0.1 -0.1,0.1 h -2.6 c 0,0 -0.1,0 -0.1,0.1 v 2 c 0,0 0,0.1 0.1,0.1 h 3.1 c 0.1,0 0.1,0 0.1,0.1 v 0.4 c 0,0.1 0,0.1 -0.1,0.1 h -3.9 c -0.1,0 -0.1,0 -0.1,-0.1 z"
   id="path68"
   style="fill:#615f60;fill-opacity:1" /><path
   class="st0"
   d="m 80.915291,69.5 -1,-3 v 0 l -1,3 z m -1.4,-4.1 c 0,-0.1 0,-0.1 0.1,-0.1 h 0.6 c 0.1,0 0.1,0 0.1,0.1 l 2.2,6.4 c 0,0.1 0,0.1 -0.1,0.1 h -0.7 c -0.1,0 -0.1,0 -0.1,-0.1 l -0.5,-1.4 h -2.6 l -0.4,1.3 c 0,0.1 -0.1,0.1 -0.1,0.1 h -0.7 c -0.1,0 -0.1,0 -0.1,-0.1 z"
   id="path70"
   style="fill:#615f60;fill-opacity:1" /><path
   class="st0"
   d="m 83.715291,65.4 c 0,-0.1 0,-0.1 0,0 l 0.7,-0.1 c 0.1,0 0.1,0 0.2,0.1 l 3,4.9 v 0 -4.9 c 0,-0.1 0,-0.1 0.1,-0.1 h 0.6 c 0.1,0 0.1,0 0.1,0.1 v 6.3 c 0,0.1 0,0.1 -0.1,0.1 h -0.6 c -0.1,0 -0.1,0 -0.2,-0.1 l -3,-4.9 v 0 4.9 c 0,0.1 0,0.1 -0.1,0.1 h -0.7 c -0.1,0 -0.1,0 -0.1,-0.1 v -6.3 z"
   id="path72"
   style="fill:#615f60;fill-opacity:1" /><path
   class="st0"
   d="m 91.415291,71.8 c 0,0 -0.1,0 0,0 l -0.1,-5.7 c 0,0 0,-0.1 -0.1,-0.1 h -1.8 c -0.1,0 -0.1,0 -0.1,-0.1 v -0.6 c 0,-0.1 0,-0.1 0.1,-0.1 h 4.6 c 0.1,0 0.1,0 0.1,0.1 v 0.6 c 0,0.1 0,0.1 -0.1,0.1 h -1.8 c 0,0 -0.1,0 -0.1,0.1 v 5.6 c 0,0.1 0,0.1 -0.1,0.1 z"
   id="path74"
   style="fill:#615f60;fill-opacity:1" /><path
   class="st0"
   d="m 94.815291,71.1 c 0,0 0,-0.1 0,-0.1 l 0.4,-0.5 c 0,0 0.1,0 0.1,0 0.4,0.3 1.1,0.7 1.8,0.7 0.9,0 1.4,-0.5 1.4,-1.1 0,-0.6 -0.3,-0.9 -1.4,-1.1 h -0.3 c -1.3,-0.2 -1.9,-0.8 -1.9,-1.8 0,-1.2 0.8,-1.9 2.1,-1.9 0.8,0 1.5,0.2 2,0.6 0,0 0.1,0.1 0,0.1 l -0.3,0.5 c 0,0 -0.1,0 -0.1,0 -0.5,-0.3 -1,-0.5 -1.6,-0.5 -0.8,0 -1.2,0.4 -1.2,1.1 0,0.5 0.4,0.9 1.4,1 h 0.3 c 1.3,0.2 1.9,0.8 1.9,1.8 0,1.1 -0.8,2 -2.4,2 -0.8,0 -1.7,-0.3 -2.2,-0.8"
   id="path76"
   style="fill:#615f60;fill-opacity:1" /><path
   class="st0"
   d="m 104.11529,71 h 1.2 c 0.8,0 1.3,-0.3 1.5,-0.9 0.1,-0.2 0.1,-0.6 0.1,-1.6 0,-1 0,-1.3 -0.1,-1.6 -0.2,-0.6 -0.7,-0.9 -1.5,-0.9 h -1.2 c 0,0 -0.1,0 -0.1,0.1 l 0.1,4.9 c 0,0 0,0 0,0 m -0.9,-5.6 c 0,-0.1 0,-0.1 0,0 l 2.3,-0.1 c 1.1,0 1.8,0.5 2.1,1.4 0.1,0.4 0.2,0.7 0.2,1.9 0,1.2 -0.1,1.5 -0.2,1.9 -0.3,0.9 -1,1.4 -2.1,1.4 h -2.2 c -0.1,0 -0.1,0 -0.1,-0.1 z"
   id="path78"
   style="fill:#615f60;fill-opacity:1" /><path
   class="st0"
   d="m 109.21529,65.4 c 0,-0.1 0.1,-0.1 0,0 l 4,-0.1 c 0.1,0 0.1,0 0.1,0.1 V 66 c 0,0.1 0,0.1 -0.1,0.1 h -3.1 c 0,0 -0.1,0 -0.1,0.1 v 1.9 c 0,0 0,0.1 0.1,0.1 h 2.6 c 0.1,0 0.1,0 0.1,0.1 v 0.6 c 0,0.1 0,0.1 -0.1,0.1 h -2.6 c 0,0 -0.1,0 -0.1,0.1 v 2 c 0,0 0,0.1 0.1,0.1 h 3.1 c 0.1,0 0.1,0 0.1,0.1 v 0.4 c 0,0.1 0,0.1 -0.1,0.1 h -3.9 c -0.1,0 -0.1,0 -0.1,-0.1 z"
   id="path80"
   style="fill:#615f60;fill-opacity:1" /><path
   class="st0"
   d="m 5.7152911,36 c -0.8,5.8 2.3,8.6 8.8999999,8.6 4.1,0 7.3,-0.7 9.4,-1.5 l 0.8,2.7 c -2.5,0.9 -6.5,1.8 -11.5,1.8 C 3.8152911,47.6 -1.7847089,43.4 0.51529111,34.3 2.7152911,25.6 10.015291,21.1 18.515291,21.1 c 8.7,0 13,4 10.7,12.5 z M 17.715291,23.9 c -5.3,0 -9.9999999,3 -11.5999999,9.9 L 24.015291,32 c 1.5,-5.8 -1.1,-8.1 -6.3,-8.1"
   id="path82"
   style="fill:#d31436;fill-opacity:1" /><path
   class="st0"
   d="m 49.615291,47.2 4.7,-18.3 c 0.6,-2.4 -0.1,-5 -6.4,-5 -3.4,0 -5.1,0.3 -7.1,0.9 l -5.7,22.4 h -5.9 l 6.2,-24.2 c 3.5,-1.1 8,-1.8 13.8,-1.8 10.1,0 12.1,3.9 11.2,7.6 l -4.7,18.4 z"
   id="path84"
   style="fill:#d31436;fill-opacity:1" /><path
   class="st0"
   d="m 66.815291,54.7 c -5.6,0 -9,-0.7 -11.4,-1.7 l 2.4,-2.8 c 1.6,0.8 4.7,1.4 8.7,1.4 6.2,0 10.9,-2.5 11.9,-6.8 1.6,-6.2 -6.6,-7 -11.5,-6.9 l 0.6,-2.4 c 7.1,-0.4 12.5,-2.8 13.4,-6.5 0.9,-3.6 -2.5,-4.8 -6.7,-4.8 -3.5,0 -7,0.6 -9,1.3 l -0.9,-2.6 c 2.4,-0.8 6.4,-1.7 11.6,-1.7 7.2,0 12.4,2.6 11.2,7.4 -1.1,4.4 -7.5,6.7 -10.5,7.4 v 0.1 c 4.6,0.9 9.8,3.2 8.4,8.8 -1.6,6 -9.3,9.8 -18.2,9.8"
   id="path86"
   style="fill:#d31436;fill-opacity:1" /><path
   class="st0"
   d="m 96.015291,47.5 c -3.9,0 -7.2,-0.7 -8.9,-1.8 l 2.3,-2.7 c 1.1,0.8 3.5,1.5 6.7,1.5 4.099999,0 7.299999,-1.9 7.899999,-4.4 0.7,-2.7 -1.1,-3.8 -4.799999,-4.9 -6.6,-1.8 -7.4,-4.5 -6.7,-7.1 1,-3.8 6.1,-7 12.699999,-7 3.7,0 6.4,0.9 8.1,1.7 l -2.2,2.5 c -0.9,-0.6 -2.9,-1.4 -5.7,-1.4 -4,0 -6.599999,1.8 -7.099999,4 -0.6,2.5 1.6,3.6 4.899999,4.6 6.6,1.9 7.7,4.5 6.9,7.5 -0.9,4 -6.6,7.5 -14.099999,7.5"
   id="path88"
   style="fill:#d31436;fill-opacity:1" /><path
   class="st0"
   d="m 90.915291,23.7 c 4.9,-4.7 14.899999,-7.1 17.599999,-7.2 l -1.1,-2.2 c -3.1,0.8 -11.999999,4.6 -16.499999,9.4"
   id="path90"
   style="fill:#d31436;fill-opacity:1" /><path
   class="st0"
   d="m 89.715291,20.3 c 4.6,-4.5 13.999999,-6.8 17.199999,-7.1 l -1.1,-2.1 c -3.4,1 -11.799999,4.6 -16.099999,9.2"
   id="path92"
   style="fill:#d31436;fill-opacity:1" /><path
   class="st0"
   d="m 88.415291,17 c 4.5,-4.3 13.299999,-6.7 16.799999,-7.1 l -1,-2.1 c -3.6,1.2 -11.599999,4.7 -15.799999,9.2"
   id="path94"
   style="fill:#d31436;fill-opacity:1" /><path
   class="st0"
   d="m 89.715291,24.2 c -16.1,-19.3 -42.5,-23.4 -49.1,-24.2 l -0.5,2.2 c 26.1,1.8 42.1,13.6 49.6,22"
   id="path96"
   style="fill:#d31436;fill-opacity:1" />
</svg>
