<?xml version="1.0" encoding="UTF-8" standalone="no"?>
<svg
   xmlns:dc="http://purl.org/dc/elements/1.1/"
   xmlns:cc="http://creativecommons.org/ns#"
   xmlns:rdf="http://www.w3.org/1999/02/22-rdf-syntax-ns#"
   xmlns:svg="http://www.w3.org/2000/svg"
   xmlns="http://www.w3.org/2000/svg"
   xmlns:sodipodi="http://sodipodi.sourceforge.net/DTD/sodipodi-0.dtd"
   xmlns:inkscape="http://www.inkscape.org/namespaces/inkscape"
   sodipodi:docname="Logo_Auvergne-Rhône-Alpes.svg"
   inkscape:version="1.0 (4035a4fb49, 2020-05-01)"
   version="1.1"
   id="svg3373"
   viewBox="0 0 150.05524 149.98001"
   height="149.98001"
   width="150.05524">
  <defs
     id="defs3375" />
  <sodipodi:namedview
     inkscape:document-rotation="0"
     inkscape:window-maximized="1"
     inkscape:window-y="-9"
     inkscape:window-x="-9"
     inkscape:window-height="1051"
     inkscape:window-width="1920"
     units="px"
     showgrid="false"
     inkscape:current-layer="layer1"
     inkscape:document-units="px"
     inkscape:cy="520.07996"
     inkscape:cx="374.9"
     inkscape:zoom="0.35"
     inkscape:pageshadow="2"
     inkscape:pageopacity="0.0"
     borderopacity="1.0"
     bordercolor="#666666"
     pagecolor="#ffffff"
     id="base" />
  <metadata
     id="metadata3378">
    <rdf:RDF>
      <cc:Work
         rdf:about="">
        <dc:format>image/svg+xml</dc:format>
        <dc:type
           rdf:resource="http://purl.org/dc/dcmitype/StillImage" />
        <dc:title />
      </cc:Work>
    </rdf:RDF>
  </metadata>
  <g
     transform="translate(-0.09999958,-902.2822)"
     id="layer1"
     inkscape:groupmode="layer"
     inkscape:label="Calque 1">
    <g
       transform="matrix(1.005379,0,0,1.005379,-23.395644,82.695685)"
       id="g4616">
      <path
         inkscape:connector-curvature="0"
         id="path4614"
         d="M 94.076379,964.33255 C 83.541814,963.72139 73.7171,961.13004 64.559454,956.54748 53.085803,950.8059 43.102415,941.98912 35.917521,931.25243 c -1.887017,-2.81983 -3.310225,-5.28091 -4.839113,-8.36793 -4.505789,-9.09782 -7.01266,-18.61626 -7.615661,-28.9161 -0.180786,-3.08797 -0.09058,-7.86859 0.210743,-11.16931 2.042378,-22.37249 14.280111,-42.79478 33.108022,-55.25068 10.863319,-7.18677 22.765241,-11.23024 36.012471,-12.23453 2.206083,-0.16725 8.760547,-0.14287 10.921107,0.0407 6.28927,0.53413 11.82668,1.6272 17.32119,3.41918 9.77524,3.18809 18.31859,8.06026 26.28045,14.9874 1.59015,1.3835 5.30226,5.10173 6.76385,6.77502 14.08066,16.11994 20.52349,36.93618 18.00846,58.18388 -1.69431,14.31413 -7.52105,27.79802 -16.81785,38.91896 -8.82722,10.55922 -20.47021,18.53231 -33.42315,22.88815 -6.02982,2.02773 -11.77505,3.17562 -18.67075,3.73036 -1.43248,0.11524 -7.540438,0.16565 -9.100911,0.0749 z"
         style="fill:#ffffff"
         sodipodi:nodetypes="cssssssssssssssssc" />
      <path
         sodipodi:nodetypes="sssssssssssssssssccsssscsssccsssscccssccccccccccscccscscscscccc"
         style="fill:#1a90cd;fill-opacity:1"
         d="M 94.076379,964.33255 C 83.541814,963.72139 73.7171,961.13004 64.559454,956.54748 53.085803,950.8059 43.102415,941.98912 35.917521,931.25243 c -1.887017,-2.81983 -3.310225,-5.28091 -4.839113,-8.36793 -4.505789,-9.09782 -7.01266,-18.61626 -7.615661,-28.9161 -0.180786,-3.08797 -0.09058,-7.86859 0.210743,-11.16931 2.042378,-22.37249 14.280111,-42.79478 33.108022,-55.25068 10.863319,-7.18677 22.765241,-11.23024 36.012471,-12.23453 2.206083,-0.16725 8.760547,-0.14287 10.921107,0.0407 6.28927,0.53413 11.82668,1.6272 17.32119,3.41918 9.77524,3.18809 18.31859,8.06026 26.28045,14.9874 1.59015,1.3835 5.30226,5.10173 6.76385,6.77502 14.08066,16.11994 20.52349,36.93618 18.00846,58.18388 -1.69431,14.31413 -7.52105,27.79802 -16.81785,38.91896 -8.82722,10.55922 -20.47021,18.53231 -33.42315,22.88815 -6.02982,2.02773 -11.77505,3.17562 -18.67075,3.73036 -1.43248,0.11524 -7.540438,0.16565 -9.100911,0.0749 z M 61.150413,908.1989 c 3.720322,-6.37062 6.842574,-11.73344 6.938328,-11.91733 0.433033,-0.83159 2.893757,-5.00207 2.951396,-5.00207 0.03542,0 0.171262,0.0899 0.301847,0.1998 0.568503,0.47835 2.213594,1.60401 3.21919,2.20272 3.972437,2.36512 7.98753,3.72168 12.772243,4.31539 1.157638,0.1436 5.537979,0.14409 6.701601,0 6.639022,-0.81807 12.330842,-3.31382 17.253542,-7.56532 0.89349,-0.77168 3.18215,-3.07967 3.18215,-3.20908 0,-0.0357 -1.35838,-1.29594 -3.01861,-2.80006 l -3.01863,-2.73473 -1.30431,1.30576 c -0.71739,0.71817 -1.62078,1.55609 -2.00758,1.86203 -3.26269,2.58085 -6.848816,4.13649 -11.127933,4.82729 -1.306702,0.21094 -5.312167,0.21094 -6.61886,0 -5.015731,-0.80971 -9.178937,-2.84843 -12.667537,-6.20326 l -0.839743,-0.80751 -3.699245,0.0214 -3.699243,0.0214 -9.599068,16.42306 c -5.279465,9.03266 -9.604192,16.47098 -9.61049,16.5297 -0.01332,0.12435 6.995309,4.25651 7.073925,4.17058 0.02905,-0.0319 3.096742,-5.27013 6.817027,-11.64073 z m 83.270577,3.43355 H 69.131591 v 8.27354 h 75.289399 z m -7.73578,-10.62124 c 2.19686,-1.27636 3.30625,-1.96571 3.29999,-2.05043 -0.005,-0.0703 -6.85573,-11.87852 -15.22335,-26.24064 l -15.21391,-26.11289 h -3.59901 -3.59899 l -8.314922,14.27996 c -4.573227,7.85401 -8.357912,14.35942 -8.410446,14.45645 -0.09092,0.1679 0.07269,0.27439 3.382756,2.20289 1.913051,1.11461 3.524162,2.03762 3.580229,2.05115 0.0591,0.0142 2.877544,-4.74097 6.705799,-11.31406 3.632104,-6.23635 6.624764,-11.33776 6.650384,-11.33649 0.0257,0 6.11253,10.40551 13.52648,23.12055 l 13.47989,23.11836 0.21285,-0.12573 c 0.11704,-0.0691 1.70207,-0.99097 3.52225,-2.04846 z"
         id="path4612"
         inkscape:connector-curvature="0" />
    </g>
  </g>
</svg>
